<?xml version="1.0" encoding="UTF-8"?>
<svg xmlns="http://www.w3.org/2000/svg" version="1.1" width="100" height="100" viewBox="0 0 100 100"><rect x="0" y="0" width="100" height="100" fill="#ffffff"/><g transform="scale(3.448)"><g transform="translate(0,0)"><path fill-rule="evenodd" d="M8 0L8 1L9 1L9 2L8 2L8 5L9 5L9 4L11 4L11 5L10 5L10 10L9 10L9 8L8 8L8 10L9 10L9 11L7 11L7 10L5 10L5 9L4 9L4 8L0 8L0 9L4 9L4 11L3 11L3 10L0 10L0 11L1 11L1 14L0 14L0 17L2 17L2 19L3 19L3 17L4 17L4 21L8 21L8 22L9 22L9 24L10 24L10 25L8 25L8 29L9 29L9 27L11 27L11 26L12 26L12 28L11 28L11 29L12 29L12 28L14 28L14 27L15 27L15 28L17 28L17 27L15 27L15 26L16 26L16 25L15 25L15 26L14 26L14 25L13 25L13 26L12 26L12 24L15 24L15 22L14 22L14 23L11 23L11 21L10 21L10 20L12 20L12 19L11 19L11 16L12 16L12 17L13 17L13 16L12 16L12 14L13 14L13 15L14 15L14 18L13 18L13 21L15 21L15 19L17 19L17 21L16 21L16 23L18 23L18 24L17 24L17 26L18 26L18 29L19 29L19 28L20 28L20 29L21 29L21 27L22 27L22 25L23 25L23 28L24 28L24 29L25 29L25 28L26 28L26 25L27 25L27 24L26 24L26 25L25 25L25 23L26 23L26 22L27 22L27 23L28 23L28 24L29 24L29 23L28 23L28 22L29 22L29 21L27 21L27 18L28 18L28 15L29 15L29 13L27 13L27 12L26 12L26 11L28 11L28 12L29 12L29 11L28 11L28 10L29 10L29 8L28 8L28 10L26 10L26 11L24 11L24 10L25 10L25 9L27 9L27 8L24 8L24 9L22 9L22 8L21 8L21 6L20 6L20 5L21 5L21 4L20 4L20 3L21 3L21 2L20 2L20 3L19 3L19 1L21 1L21 0L18 0L18 3L17 3L17 2L16 2L16 3L14 3L14 5L13 5L13 3L12 3L12 4L11 4L11 2L14 2L14 0L12 0L12 1L11 1L11 0L10 0L10 1L9 1L9 0ZM15 0L15 1L16 1L16 0ZM18 3L18 5L17 5L17 4L16 4L16 5L14 5L14 6L13 6L13 5L12 5L12 6L11 6L11 8L12 8L12 6L13 6L13 8L14 8L14 9L17 9L17 8L16 8L16 5L17 5L17 7L18 7L18 5L19 5L19 3ZM8 6L8 7L9 7L9 6ZM14 6L14 7L15 7L15 6ZM19 6L19 8L20 8L20 6ZM6 8L6 9L7 9L7 8ZM11 9L11 10L12 10L12 9ZM20 9L20 10L19 10L19 11L18 11L18 10L14 10L14 11L11 11L11 13L8 13L8 12L7 12L7 11L5 11L5 12L4 12L4 14L5 14L5 15L4 15L4 16L5 16L5 19L6 19L6 20L9 20L9 19L10 19L10 16L11 16L11 13L12 13L12 12L13 12L13 14L14 14L14 15L15 15L15 17L16 17L16 18L18 18L18 16L19 16L19 19L18 19L18 20L19 20L19 21L20 21L20 19L21 19L21 16L22 16L22 19L23 19L23 16L24 16L24 15L25 15L25 17L24 17L24 20L26 20L26 19L25 19L25 18L26 18L26 17L27 17L27 15L25 15L25 14L27 14L27 13L25 13L25 12L22 12L22 10L21 10L21 9ZM20 10L20 11L19 11L19 12L20 12L20 13L19 13L19 14L18 14L18 12L17 12L17 11L16 11L16 12L17 12L17 13L16 13L16 15L17 15L17 14L18 14L18 15L20 15L20 14L21 14L21 15L22 15L22 16L23 16L23 15L24 15L24 14L23 14L23 13L22 13L22 14L21 14L21 12L20 12L20 11L21 11L21 10ZM2 11L2 13L3 13L3 11ZM5 12L5 14L6 14L6 15L5 15L5 16L6 16L6 17L7 17L7 18L6 18L6 19L7 19L7 18L8 18L8 16L6 16L6 15L9 15L9 16L10 16L10 15L9 15L9 14L8 14L8 13L7 13L7 12ZM14 12L14 14L15 14L15 12ZM6 13L6 14L7 14L7 13ZM2 14L2 15L1 15L1 16L2 16L2 17L3 17L3 14ZM22 14L22 15L23 15L23 14ZM16 16L16 17L17 17L17 16ZM0 18L0 19L1 19L1 18ZM1 20L1 21L2 21L2 20ZM9 21L9 22L10 22L10 21ZM17 21L17 22L18 22L18 23L19 23L19 22L18 22L18 21ZM21 21L21 24L24 24L24 21ZM22 22L22 23L23 23L23 22ZM10 23L10 24L11 24L11 23ZM18 24L18 25L19 25L19 26L21 26L21 25L20 25L20 24ZM10 25L10 26L11 26L11 25ZM28 25L28 27L27 27L27 29L28 29L28 27L29 27L29 25ZM13 26L13 27L14 27L14 26ZM24 26L24 28L25 28L25 26ZM0 0L0 7L7 7L7 0ZM1 1L1 6L6 6L6 1ZM2 2L2 5L5 5L5 2ZM22 0L22 7L29 7L29 0ZM23 1L23 6L28 6L28 1ZM24 2L24 5L27 5L27 2ZM0 22L0 29L7 29L7 22ZM1 23L1 28L6 28L6 23ZM2 24L2 27L5 27L5 24Z" fill="#000000"/></g></g></svg>
